# xmcd
#
# Track frame offsets:
#	150
#	18745
#	38097
#	49037
#	72305
#	87410
#	104740
#	113765
#	139390
#	154040
#
# Disc length: 2300 seconds
#
# Revision: 3
# Processed by: cddbd v1.5.2PL0 Copyright (c) Steve Scherf et al.
# Submitted via: audiograbber 1.83.01
#
DISCID=8b08fa0a
DTITLE=Hans Theessink - Baby Wants To Boogie
DYEAR=1987
DGENRE=Blues
TTITLE0=Baby Wants To Boogie
TTITLE1=My Baby Changed The Lock On Her Door
TTITLE2=Slidin' Delta
TTITLE3=Stones In My Passway
TTITLE4=Nobody's Fault But Mine
TTITLE5=Darkest Hour
TTITLE6=Southsea Shuffle
TTITLE7=Hunted Man
TTITLE8=Went To The Doctor
TTITLE9=When Things Go Wrong
EXTD=
EXTT0=
EXTT1=
EXTT2=
EXTT3=
EXTT4=
EXTT5=
EXTT6=
EXTT7=
EXTT8=
EXTT9=
PLAYORDER=
